<?xml version="1.0" encoding="utf-8"?>
<!-- Generator: Adobe Illustrator 16.0.0, SVG Export Plug-In . SVG Version: 6.00 Build 0)  -->
<!DOCTYPE svg PUBLIC "-//W3C//DTD SVG 1.1//EN" "http://www.w3.org/Graphics/SVG/1.1/DTD/svg11.dtd">
<svg version="1.1" id="Layer_1" xmlns="http://www.w3.org/2000/svg" xmlns:xlink="http://www.w3.org/1999/xlink" x="0px" y="0px"
	 width="200px" height="100px" viewBox="0 0 200 100" enable-background="new 0 0 200 100" xml:space="preserve">
<path fill-rule="evenodd" clip-rule="evenodd" fill="#FFFFFF" d="M90.428,62.323c-1.671,4.221-4.889,6.593-8.813,8.216
	c-4.486,1.856-9.215,2.072-13.909,1.502c-4.824-0.586-8.708-2.965-10.992-7.654c-3.818,1.035-7.594,1.65-11.015-0.482
	c-2.17,1.888-4.1,3.712-6.181,5.343c-3.268,2.56-7.065,3.354-11.147,2.915c-2.067-0.223-3.495-1.376-4.27-3.244
	c-0.412-0.99-0.553-2.094-0.858-3.313c-1.238,1.014-2.42,1.976-3.597,2.944c-3.556,2.93-7.616,4.133-12.201,3.617
	c-3.288-0.371-5.432-2.618-5.542-5.979c-0.061-1.859-0.011-3.724-0.011-5.629c-1.284,0.229-2.896,0.752-4.5,0.733
	c-1.572-0.018-3.137-0.587-4.785-0.931c-1.707,1.802-3.402,3.839-5.349,5.6c-5.224,4.724-11.433,6.735-18.445,6.207
	c-3.16-0.237-5.722-1.661-7.588-4.234c-0.65-0.896-1.17-1.886-1.868-3.025c-1.054,0.592-2.093,1.292-3.222,1.786
	c-3.829,1.673-7.648,3.384-11.558,4.848c-1.475,0.552-3.186,0.619-4.793,0.642c-3.01,0.039-4.514-1.473-4.802-4.513
	c-0.34-3.585,0.979-6.73,2.625-9.767c1.835-3.389,3.764-6.726,5.641-10.09c0.292-0.523,0.603-1.053,0.779-1.619
	c0.588-1.895-0.438-3.225-2.352-2.772c-1.716,0.407-3.438,1.073-4.958,1.963c-4.09,2.396-7.008,6.043-9.557,9.919
	c-2.485,3.779-4.649,7.77-6.953,11.668c-0.653,1.104-1.219,2.273-1.969,3.307c-1.333,1.835-3.905,2.546-5.712,1.704
	c-1.679-0.784-2.557-2.717-1.731-5.093c1.231-3.547,2.711-7.021,4.292-10.43c2.484-5.358,5.069-10.674,7.77-15.926
	c0.717-1.395,1.808-2.787,3.081-3.671c2.94-2.043,5.657-0.574,5.89,2.973c0.022,0.337,0.003,0.677,0.003,0.894
	c3.138-1.635,6.188-3.428,9.404-4.841c2.98-1.308,6.165-2.07,9.485-1.38c3.159,0.656,4.279,2.118,4.386,5.339
	c0.106,3.197-0.877,6.124-2.334,8.841c-2.062,3.844-4.418,7.531-6.614,11.307c-0.447,0.769-0.741,1.627-1.336,2.963
	c1.233-0.076,2.042,0.093,2.621-0.197c3.895-1.955,7.769-3.957,11.576-6.075c0.615-0.343,0.998-1.294,1.264-2.043
	c2.311-6.503,5.528-12.392,11.394-16.38c5.262-3.578,11.076-4.97,17.331-3.408c6.533,1.632,9.395,6.468,7.94,13.018
	c-0.313,1.412-0.723,2.803-1.116,4.313c1.263,1.247,2.738,1.217,4.194,0.471c3.625-1.858,6.909-4.046,8.542-8.098
	c0.987-2.448,2.293-4.775,3.551-7.106c1.408-2.612,4.943-2.732,7.178-1.028c1.613,1.23,2.021,3.083,1.091,5.338
	c-1.859,4.509-3.784,8.991-5.68,13.484c-0.865,2.05-1.782,4.081-2.569,6.161c-0.337,0.891-0.401,1.885-0.599,2.879
	c2.22,0.53,3.21-0.868,4.305-1.826c3.972-3.475,7.19-7.591,9.791-12.169c1.776-3.125,3.392-6.341,5.085-9.513
	c0.645-1.208,1.209-2.473,1.977-3.599c1.242-1.818,3.631-2.41,5.451-1.496c1.378,0.693,1.756,2.168,0.958,4.568
	c-2.157,6.491-4.381,12.959-6.574,19.44c-0.437,1.289-0.851,2.586-1.257,3.822c0.793,1.464,1.812,0.85,2.679,0.371
	c4.013-2.22,7.167-5.182,8.69-9.701c1.418-4.21,2.973-8.38,4.657-12.49c0.638-1.556,1.695-2.981,2.758-4.308
	c1.267-1.581,3.052-2.019,4.56-1.409c1.753,0.709,2.438,1.783,2.342,4.097c-0.22,5.278-2.25,9.964-4.888,14.433
	c-0.425,0.72-0.865,1.429-1.443,2.381c2.897,0.882,5.459,0.396,7.899-0.534c2.227-0.85,4.354-1.978,6.48-3.069
	c1.973-1.012,3.485-0.989,4.422,0.224c0.88,1.138,0.72,3.106-0.654,4.433c-1.404,1.354-3.037,2.473-4.569,3.694
	c2.392,2.985,10.049,3.572,13.165,1.87c2.663-1.455,3.562-3.643,2.527-6.977c-1.181-3.803-3.976-6.339-7.008-8.636
	c-1.568-1.188-3.289-2.172-4.906-3.297c-2.224-1.548-2.438-3.138-0.666-5.124c2.563-2.873,5.3-5.4,9.609-5.016
	c1.825,0.162,3.501,0.626,4.186,2.404c0.676,1.752-0.406,3.118-1.682,4.254c-0.508,0.451-1.056,0.858-1.715,1.391
	c6.808,4.474,12.647,9.544,12.832,18.35c2.647-5.752,5.312-11.54,8.083-17.557c-1.349,0-2.467,0.088-3.566-0.022
	c-1.33-0.134-2.611-0.643-3.004-2.038c-0.423-1.5-0.058-3.024,1.317-3.872c1.043-0.643,2.314-1.086,3.531-1.235
	c1.683-0.205,3.409-0.052,5.172-0.052c3.367-6.693,6.666-13.273,9.994-19.839c0.462-0.911,0.92-1.896,1.631-2.589
	c0.828-0.805,1.862-1.501,2.934-1.933c1.881-0.759,3.859-0.581,5.191,1.021c1.197,1.44,0.867,3.277,0.044,4.851
	c-2.782,5.311-5.646,10.578-8.47,15.867c-0.398,0.746-0.751,1.515-1.299,2.622c1.422,0,2.574-0.028,3.727,0.005
	c5.469,0.156,10.937,0.353,16.406,0.464c0.635,0.013,1.289-0.381,1.915-0.633c3.475-1.397,7.079-2.229,10.765-1.324
	c2.273,0.559,4.401,1.704,6.518,3.047c1.086-0.459,2.141-1.034,3.268-1.351c1.822-0.514,3.6-0.35,4.992,1.121
	c1.25,1.319,0.876,2.8,0.37,4.328c-1.665,5.029-3.319,10.062-4.871,15.126c-0.342,1.114-0.421,2.378-0.318,3.547
	c0.199,2.275,1.604,3.166,3.519,1.948c3.018-1.919,5.845-4.154,8.656-6.378c1.405-1.111,2.59-2.502,3.889-3.752
	c1.502-1.447,3.008-1.697,4.042-0.695c1.168,1.131,1.26,3.33,0.196,4.725c-0.052,0.069-0.113,0.129-0.174,0.19
	c-4.883,4.952-9.816,9.855-15.865,13.417c-2.134,1.257-4.344,2.365-6.961,2.373c-3.898,0.011-6.731-2.334-7.115-6.211
	c-0.158-1.592-0.026-3.212-0.026-4.187c-2.038,1.813-4.304,3.885-6.631,5.884c-2.495,2.144-5.218,3.98-8.554,4.414
	c-6.336,0.824-11.133-2.555-12.248-9.274c-0.75,0.534-1.4,0.984-2.038,1.452c-4.363,3.201-8.781,6.361-14.194,7.486
	c-2.061,0.428-4.27,0.454-6.375,0.266c-2.559-0.229-4.41-2.474-4.556-5.111C90.358,65.414,90.428,63.866,90.428,62.323z
	 M108.444,43.126c-2.647,5.568-5.239,10.848-7.634,16.216c-0.461,1.034-0.633,2.75-0.076,3.557c0.875,1.269,2.46,0.283,3.482-0.272
	c3.518-1.909,6.948-3.985,10.365-6.074c3.182-1.944,5.838-4.297,7.104-8.06c0.648-1.929,2.049-3.607,3.09-5.366
	C119.33,43.126,114.046,43.126,108.444,43.126z M-13.613,49.289c0-0.684,0.089-1.383-0.016-2.052
	c-0.413-2.636-2.49-4.258-5.133-3.867c-8.222,1.217-12.509,10.8-10.785,16.565c0.863,2.885,2.824,3.941,5.72,3.174
	C-17.978,61.561-13.558,55.611-13.613,49.289z M127.924,56.576c0.082,2.906,0.032,5.102,2.377,6.299
	c2.363,1.207,3.968-0.418,5.504-1.65c3.993-3.2,7.004-7.264,9.496-11.701c1.189-2.117,0.763-3.394-1.374-4.668
	c-2.851-1.698-5.792-1.55-8.547,0.062C130.684,47.666,128.191,51.85,127.924,56.576z"/>
</svg>
